<svg width="24" height="24" viewBox="0 0 24 24" fill="none" xmlns="http://www.w3.org/2000/svg">
<g clip-path="url(#clip0)">
<path d="M6.85707 7C7.56151 7 8.20191 7.05822 8.78409 7.1863C9.36046 7.30856 9.85531 7.51232 10.2745 7.79759C10.6878 8.07704 11.008 8.45546 11.2351 8.9212C11.4621 9.38695 11.5727 9.96913 11.5727 10.6561C11.5727 11.4013 11.4039 12.0184 11.0662 12.5191C10.7286 13.0139 10.2279 13.4215 9.5584 13.7358C10.4666 13.9978 11.1419 14.4578 11.5844 15.1098C12.0327 15.7677 12.2539 16.5536 12.2539 17.4793C12.2539 18.2303 12.1084 18.8707 11.8231 19.4121C11.532 19.9594 11.1419 20.4077 10.6529 20.7511C10.1639 21.0946 9.60497 21.3508 8.97621 21.5196C8.35328 21.6826 7.70706 21.77 7.04919 21.77H-0.100006V7H6.85707ZM6.4379 12.9615C7.01426 12.9615 7.49165 12.8276 7.87007 12.5482C8.24266 12.2746 8.42314 11.8263 8.42314 11.2034C8.42314 10.8599 8.36492 10.5746 8.24266 10.3534C8.11458 10.1321 7.95157 9.96331 7.74199 9.84105C7.5324 9.71297 7.29953 9.63146 7.0259 9.57907C6.7581 9.52667 6.47865 9.50338 6.18756 9.50338H3.14857V12.9557H6.4379V12.9615ZM6.61838 19.2491C6.93858 19.2491 7.24131 19.22 7.5324 19.156C7.82349 19.0919 8.07965 18.993 8.30088 18.8416C8.51629 18.696 8.69677 18.5039 8.83067 18.2536C8.96457 18.0032 9.02279 17.683 9.02279 17.2988C9.02279 16.5361 8.80738 16.0005 8.38239 15.6687C7.9574 15.3427 7.38686 15.1855 6.68824 15.1855H3.15439V19.2491H6.61838Z" fill="black"/>
<path d="M16.8939 19.1967C17.3364 19.6275 17.9709 19.8429 18.7918 19.8429C19.3856 19.8429 19.898 19.6916 20.3229 19.3947C20.7479 19.0977 21.0099 18.7775 21.1089 18.4457H23.6938C23.2804 19.7323 22.6459 20.6522 21.79 21.2052C20.9401 21.7583 19.9038 22.0378 18.6928 22.0378C17.8487 22.0378 17.0918 21.9039 16.4107 21.6302C15.7295 21.3566 15.1648 20.9782 14.6874 20.4833C14.2217 19.9827 13.8607 19.3947 13.6046 18.7019C13.3484 18.0149 13.2203 17.2522 13.2203 16.4255C13.2203 15.6279 13.3542 14.8769 13.6162 14.19C13.884 13.4972 14.2508 12.8975 14.734 12.3968C15.2172 11.8903 15.7936 11.4944 16.4689 11.2034C17.1384 10.9123 17.8778 10.7667 18.6987 10.7667C19.601 10.7667 20.3928 10.9414 21.074 11.2965C21.7493 11.6458 22.3024 12.1174 22.739 12.7112C23.1756 13.305 23.4842 13.9804 23.6763 14.7372C23.8684 15.494 23.9383 16.2858 23.8801 17.1183H16.1662C16.1662 17.9683 16.4514 18.7717 16.8939 19.1967ZM20.2647 13.5845C19.9154 13.2002 19.3274 12.9907 18.6055 12.9907C18.1339 12.9907 17.7497 13.0722 17.4353 13.2293C17.1326 13.3865 16.8822 13.5845 16.6901 13.8174C16.498 14.056 16.3699 14.3064 16.2942 14.5684C16.2186 14.8304 16.172 15.0632 16.1603 15.2728H20.9401C20.876 14.5276 20.6199 13.9745 20.2647 13.5845Z" fill="black"/>
<path d="M21.5513 7.98971H15.5665V9.44517H21.5513V7.98971Z" fill="black"/>
</g>
<defs>
<clipPath id="clip0">
<rect width="24" height="24" fill="white"/>
</clipPath>
</defs>
</svg>
