<svg width="24" height="24" viewBox="0 0 24 24" fill="none" xmlns="http://www.w3.org/2000/svg">
<path fill-rule="evenodd" clip-rule="evenodd" d="M22.6409 4C23.3915 4 24 4.60621 24 5.35692V19.3978C24 20.1472 23.3947 20.7547 22.6409 20.7547H1.35911C0.608494 20.7547 0 20.1485 0 19.3978V5.35692C0 4.60751 0.605265 4 1.35911 4H22.6409ZM10.9358 13.7597L1.71255 6.45795C1.51718 6.30328 1.35849 6.38137 1.35849 6.63267V18.9412C1.35849 19.1939 1.56192 19.3962 1.81286 19.3962H22.1871C22.4377 19.3962 22.6415 19.1925 22.6415 18.9412V6.63267C22.6415 6.38 22.483 6.30315 22.2874 6.45795L13.0642 13.7597C12.4779 14.2238 11.5236 14.225 10.9358 13.7597ZM21.0373 5.35849H2.96273C2.71265 5.35849 2.67115 5.48418 2.867 5.63922L11.6454 12.5888C11.8432 12.7454 12.1588 12.7438 12.3546 12.5888L21.133 5.63922C21.3309 5.48259 21.286 5.35849 21.0373 5.35849Z" fill="black"/>
</svg>
