<svg width="24" height="24" viewBox="0 0 24 24" fill="none" xmlns="http://www.w3.org/2000/svg">
<path d="M20 14.262V22H15.7134V14.7802C15.7134 12.9666 15.0933 11.7288 13.5417 11.7288C12.3572 11.7288 11.6524 12.563 11.3423 13.3699C11.2292 13.6583 11.2001 14.0598 11.2001 14.4636V22H6.91198C6.91198 22 6.96973 9.77208 6.91198 8.50518H11.1997V10.418C11.191 10.4323 11.1797 10.4477 11.1715 10.4616H11.1997V10.418C11.7693 9.49982 12.7867 8.18815 15.0638 8.18815C17.885 8.1881 20 10.1169 20 14.262ZM2.42646 2C0.959506 2 0 3.00695 0 4.33113C0 5.62645 0.931746 6.66397 2.36954 6.66397H2.39818C3.89355 6.66397 4.82352 5.62665 4.82352 4.33113C4.79535 3.00695 3.89355 2 2.42646 2ZM0.254675 22H4.54114V8.50518H0.254675V22Z" fill="black"/>
</svg>
