<svg width="24" height="24" viewBox="0 0 24 24" fill="none" xmlns="http://www.w3.org/2000/svg">
<g clip-path="url(#clip0)">
<path d="M7.99554 7.79018V23.5C7.99554 23.7232 7.93973 23.9129 7.82813 24.0692C7.71652 24.2254 7.55357 24.3036 7.33929 24.3036C7.1875 24.3036 7.04018 24.2679 6.89732 24.1964L0.669643 21.0759C0.482143 20.9866 0.323661 20.8371 0.194196 20.6272C0.0647321 20.4174 0 20.2098 0 20.0045V4.73661C0 4.55804 0.0446429 4.40625 0.133929 4.28125C0.223214 4.15625 0.352679 4.09375 0.522321 4.09375C0.647321 4.09375 0.84375 4.16071 1.11161 4.29464L7.95536 7.72321C7.98214 7.75 7.99554 7.77232 7.99554 7.79018ZM8.85268 9.14286L16.0045 20.7411L8.85268 17.1786V9.14286ZM24 9.38393V23.5C24 23.7232 23.9375 23.904 23.8125 24.0424C23.6875 24.1808 23.5179 24.25 23.3036 24.25C23.0893 24.25 22.8795 24.192 22.6741 24.0759L16.7679 21.1295L24 9.38393ZM23.9598 7.77679C23.9598 7.80357 22.8147 9.67634 20.5246 13.3951C18.2344 17.1138 16.8929 19.2902 16.5 19.9241L11.2768 11.433L15.6161 4.375C15.7679 4.125 16 4 16.3125 4C16.4375 4 16.5536 4.02679 16.6607 4.08036L23.9063 7.69643C23.942 7.71429 23.9598 7.74107 23.9598 7.77679Z" fill="black"/>
</g>
<defs>
<clipPath id="clip0">
<rect width="24" height="24" fill="white"/>
</clipPath>
</defs>
</svg>
