<svg width="24" height="24" viewBox="0 0 24 24" fill="none" xmlns="http://www.w3.org/2000/svg">
<path d="M24 4.30875C23.1177 4.70093 22.1682 4.96547 21.1719 5.08386C22.1891 4.47488 22.9691 3.51026 23.3369 2.35954C22.3855 2.92418 21.3322 3.3339 20.2102 3.55508C19.3123 2.59826 18.0325 2 16.6163 2C13.8973 2 11.6928 4.20449 11.6928 6.92394C11.6928 7.3093 11.7362 7.68491 11.8205 8.04592C7.72815 7.84033 4.09963 5.8804 1.67103 2.90128C1.24718 3.62816 1.00457 4.4739 1.00457 5.37714C1.00457 7.0852 1.8737 8.59253 3.19493 9.47531C2.38816 9.44948 1.62865 9.22782 0.964618 8.85902C0.964131 8.87948 0.964131 8.90043 0.964131 8.92138C0.964131 11.3066 2.66147 13.2963 4.9142 13.7493C4.50107 13.8614 4.06601 13.9218 3.61683 13.9218C3.29919 13.9218 2.9908 13.8911 2.69021 13.8331C3.31722 15.7892 5.13538 17.2132 7.28969 17.2527C5.60453 18.5734 3.48188 19.3607 1.17459 19.3607C0.777541 19.3607 0.38536 19.3373 0 19.2915C2.17965 20.6892 4.76755 21.5038 7.5479 21.5038C16.6051 21.5038 21.5573 14.0012 21.5573 7.49443C21.5573 7.28104 21.5529 7.06814 21.5436 6.85671C22.5053 6.16394 23.3404 5.29627 24 4.30875Z" fill="black"/>
</svg>
