<svg width="24" height="24" viewBox="0 0 24 24" fill="none" xmlns="http://www.w3.org/2000/svg">
<path d="M20.5048 2C22.8269 2.06102 23.9885 3.37919 24 5.95798C24 6.12721 23.9942 6.30335 23.985 6.4841C23.8826 8.67031 22.2559 11.6486 19.098 15.4178C15.8411 19.3665 13.0781 21.3432 10.809 21.3536C9.39761 21.3536 8.22564 20.1448 7.28508 17.726L6.29731 14.4104L5.32105 11.0994C4.60153 8.70024 3.83249 7.50295 3.01166 7.50295C2.83206 7.50295 2.20924 7.85293 1.13973 8.55058L0 7.20248L1.76831 5.73349L3.50784 4.27946C5.06548 3.03152 6.25011 2.35689 7.06289 2.25673C7.1711 2.24522 7.27932 2.24176 7.38984 2.24176C9.05799 2.24176 10.0999 3.44021 10.5086 5.83825C10.7365 7.20593 10.9253 8.31803 11.0784 9.17226C11.2269 10.0288 11.3513 10.6251 11.4503 10.9647C12.0017 13.2327 12.5958 14.3724 13.2347 14.3816C13.7251 14.3816 14.4804 13.6425 15.5004 12.1643C16.4973 10.6458 17.0338 9.52108 17.1029 8.78889C17.1248 8.64038 17.1328 8.50108 17.1328 8.37214C17.1328 7.38092 16.5871 6.88703 15.5004 6.88703C14.9489 6.88703 14.3606 7.00446 13.7309 7.23126C14.8591 3.75335 17.0281 2.01151 20.2354 2C20.3252 2 20.4139 2 20.5048 2Z" fill="black"/>
</svg>
