<svg width="24" height="24" viewBox="0 0 24 24" fill="none" xmlns="http://www.w3.org/2000/svg">
<path d="M12 0C5.376 0 0 5.376 0 12C0 18.624 5.376 24 12 24C18.624 24 24 18.624 24 12C24 5.376 18.624 0 12 0ZM23.52 12C23.52 12.408 23.497 12.792 23.448 13.176L21.408 12.936C21.432 12.624 21.458 12.312 21.458 12C21.458 11.712 21.433 11.4 21.408 11.112L23.448 10.872C23.52 11.256 23.52 11.616 23.52 12ZM0.479 12C0.479 11.616 0.503 11.231 0.528 10.848L2.568 11.088C2.544 11.4 2.521 11.688 2.521 12C2.521 12.312 2.544 12.6 2.568 12.912L0.528 13.152C0.479 12.769 0.479 12.384 0.479 12ZM20.951 8.904L22.872 8.184C23.136 8.904 23.305 9.648 23.424 10.416L21.384 10.656C21.287 10.056 21.144 9.456 20.951 8.904ZM21 12C21 12.6 20.928 13.176 20.833 13.752L18.816 13.297C18.887 12.888 18.935 12.456 18.935 12C18.935 11.544 18.887 11.088 18.816 10.656L20.833 10.199C20.951 10.776 21 11.376 21 12ZM12 18.456C8.435 18.455 5.545 15.565 5.544 12C5.545 8.435 8.435 5.545 12 5.544C15.565 5.545 18.455 8.435 18.456 12C18.464 15.559 15.585 18.448 12.027 18.456H12ZM12.216 21V18.936C13.101 18.907 13.972 18.712 14.784 18.361L15.672 20.233C14.582 20.715 13.408 20.975 12.216 21ZM8.28 20.209L9.192 18.336C9.984 18.695 10.848 18.911 11.76 18.936V21C10.558 20.977 9.374 20.707 8.28 20.209ZM3 12C3 11.376 3.072 10.776 3.192 10.176L5.208 10.632C5.11 11.082 5.062 11.54 5.064 12C5.064 12.432 5.112 12.864 5.184 13.272L3.168 13.727C3.051 13.159 2.994 12.58 3 12ZM11.76 3V5.064C10.883 5.093 10.02 5.288 9.216 5.64L8.328 3.769C9.411 3.291 10.577 3.03 11.76 3ZM15.695 3.792L14.784 5.664C13.975 5.301 13.102 5.105 12.216 5.088V3.024C13.464 3.024 14.64 3.312 15.695 3.792ZM20.783 8.448C20.552 7.888 20.27 7.35 19.943 6.84L21.624 5.688C22.031 6.336 22.392 7.008 22.68 7.728L20.783 8.448V8.448ZM20.713 9.744L18.695 10.2C18.465 9.35 18.074 8.552 17.544 7.848L19.176 6.553C19.896 7.512 20.424 8.568 20.713 9.744ZM17.256 7.488C16.684 6.821 15.992 6.268 15.216 5.855L16.128 3.984C17.184 4.533 18.121 5.283 18.888 6.192L17.256 7.488V7.488ZM16.656 3.744L17.616 1.92C18.288 2.304 18.911 2.736 19.512 3.24L18.145 4.8C17.684 4.399 17.186 4.046 16.656 3.744V3.744ZM16.248 3.528C15.708 3.262 15.146 3.045 14.568 2.88L15.072 0.888C15.816 1.104 16.536 1.368 17.231 1.728L16.248 3.528V3.528ZM14.088 2.76C13.488 2.616 12.888 2.544 12.264 2.521V0.479C13.057 0.503 13.848 0.599 14.592 0.768L14.088 2.76V2.76ZM11.808 2.521C11.203 2.542 10.601 2.615 10.008 2.737L9.528 0.744C10.248 0.576 11.015 0.479 11.808 0.479V2.521V2.521ZM9.528 2.855C8.942 3.022 8.372 3.239 7.824 3.504L6.864 1.68C7.555 1.337 8.279 1.064 9.024 0.864L9.528 2.855ZM7.416 3.72C6.887 4.014 6.389 4.36 5.928 4.752L4.56 3.216C5.16 2.712 5.784 2.28 6.456 1.897L7.416 3.72V3.72ZM7.896 3.984L8.784 5.855C7.992 6.263 7.32 6.815 6.744 7.463L5.136 6.168C5.911 5.273 6.847 4.532 7.896 3.984V3.984ZM4.848 6.552L6.456 7.847C5.926 8.552 5.535 9.35 5.304 10.2L3.288 9.744C3.6 8.544 4.128 7.464 4.848 6.552V6.552ZM3.24 8.4L1.32 7.68C1.607 6.96 1.968 6.264 2.4 5.64L4.08 6.816C3.739 7.31 3.457 7.841 3.24 8.4ZM3.072 8.855C2.88 9.432 2.712 10.007 2.64 10.631L0.6 10.393C0.72 9.624 0.888 8.856 1.153 8.136L3.072 8.855ZM2.616 13.368C2.712 13.968 2.855 14.568 3.048 15.144L1.128 15.864C0.857 15.136 0.672 14.379 0.576 13.607L2.616 13.368ZM3.24 15.576C3.479 16.152 3.768 16.68 4.08 17.183L2.4 18.336C1.965 17.707 1.603 17.03 1.32 16.32L3.24 15.576V15.576ZM3.264 14.184L5.281 13.728C5.497 14.592 5.905 15.409 6.409 16.104L4.8 17.4C4.075 16.443 3.553 15.349 3.264 14.184V14.184ZM6.696 16.464C7.273 17.136 7.968 17.712 8.76 18.12L7.848 19.992C6.785 19.435 5.839 18.677 5.064 17.76L6.696 16.464ZM7.416 20.279L6.456 22.104C5.782 21.728 5.146 21.285 4.56 20.783L5.928 19.248C6.384 19.655 6.864 19.992 7.416 20.279V20.279ZM7.824 20.496C8.352 20.76 8.928 20.976 9.529 21.143L9.025 23.135C8.278 22.939 7.554 22.666 6.865 22.32L7.824 20.496V20.496ZM9.984 21.264C10.56 21.384 11.16 21.457 11.784 21.481V23.52C11.01 23.494 10.24 23.406 9.479 23.256L9.984 21.264V21.264ZM12.264 21.48C12.869 21.459 13.471 21.386 14.065 21.263L14.544 23.255C13.795 23.423 13.031 23.519 12.264 23.542V21.48V21.48ZM14.521 21.144C15.107 20.979 15.676 20.762 16.224 20.497L17.184 22.321C16.496 22.671 15.772 22.944 15.025 23.136L14.521 21.144V21.144ZM16.607 20.279C17.135 19.992 17.639 19.632 18.095 19.248L19.464 20.783C18.876 21.285 18.241 21.728 17.568 22.104L16.607 20.279V20.279ZM16.128 20.016L15.24 18.145C16.028 17.731 16.729 17.168 17.304 16.489L18.91 17.785C18.132 18.695 17.188 19.453 16.128 20.016V20.016ZM19.199 17.424L17.592 16.128C18.124 15.42 18.508 14.611 18.72 13.752L20.737 14.208C20.426 15.365 19.906 16.456 19.199 17.424ZM20.76 15.6L22.68 16.321C22.392 17.041 22.032 17.713 21.601 18.361L19.919 17.184C20.256 16.68 20.543 16.152 20.76 15.6V15.6ZM20.928 15.145C21.12 14.592 21.264 13.993 21.361 13.393L23.4 13.632C23.29 14.393 23.106 15.14 22.849 15.864L20.928 15.145V15.145ZM21.384 5.304L19.703 6.456C19.345 5.966 18.943 5.509 18.504 5.088L19.872 3.552C20.424 4.104 20.928 4.68 21.384 5.304V5.304ZM4.2 3.528L5.568 5.064C5.112 5.472 4.728 5.928 4.368 6.432L2.688 5.256C3.119 4.62 3.628 4.04 4.2 3.528V3.528ZM2.664 18.744L4.344 17.592C4.704 18.072 5.113 18.529 5.544 18.961L4.176 20.496C3.628 19.951 3.122 19.365 2.664 18.744ZM19.824 20.473L18.456 18.936C18.888 18.529 19.297 18.073 19.655 17.592L21.337 18.768C20.88 19.368 20.376 19.943 19.824 20.473V20.473Z" fill="black"/>
</svg>
